<svg width="15" height="8" viewBox="0 0 15 8" fill="none" xmlns="http://www.w3.org/2000/svg">
<path d="M8.09124 0.591054C8.24972 0.440179 8.46061 0.35677 8.67941 0.358425C8.89822 0.360081 9.10782 0.446672 9.264 0.599928C9.42017 0.753184 9.5107 0.961116 9.51649 1.17985C9.52227 1.39858 9.44285 1.61101 9.29499 1.7723L4.80624 7.38605C4.72906 7.46919 4.6359 7.53591 4.53234 7.58222C4.42878 7.62853 4.31695 7.65348 4.20353 7.65558C4.0901 7.65768 3.97742 7.63688 3.87222 7.59444C3.76702 7.552 3.67145 7.48877 3.59124 7.40855L0.614494 4.4318C0.531596 4.35456 0.465106 4.26141 0.41899 4.15791C0.372874 4.05441 0.348077 3.94268 0.346079 3.82939C0.34408 3.7161 0.36492 3.60357 0.407356 3.49851C0.449792 3.39345 0.512955 3.29801 0.593076 3.21789C0.673197 3.13777 0.768635 3.0746 0.873697 3.03217C0.978758 2.98973 1.09129 2.96889 1.20458 2.97089C1.31787 2.97289 1.4296 2.99768 1.5331 3.0438C1.6366 3.08992 1.72975 3.15641 1.80699 3.2393L4.16274 5.59393L8.06874 0.615804C8.07575 0.607119 8.08326 0.598854 8.09124 0.591054ZM7.05624 6.37355L8.09124 7.40855C8.17144 7.4886 8.26693 7.55167 8.37203 7.59401C8.47712 7.63635 8.58967 7.65709 8.70296 7.65499C8.81624 7.65289 8.92795 7.628 9.0314 7.58179C9.13486 7.53559 9.22795 7.46902 9.30512 7.38605L13.7961 1.7723C13.8768 1.69266 13.9406 1.59757 13.9837 1.49271C14.0268 1.38786 14.0483 1.2754 14.047 1.16204C14.0457 1.04868 14.0215 0.936746 13.976 0.832927C13.9305 0.729109 13.8645 0.635533 13.782 0.557787C13.6994 0.480042 13.6021 0.419721 13.4958 0.380427C13.3894 0.341134 13.2763 0.323673 13.163 0.329088C13.0498 0.334503 12.9388 0.362684 12.8367 0.411945C12.7346 0.461207 12.6435 0.53054 12.5687 0.615804L8.66162 5.59393L8.11599 5.04718L7.05512 6.37355H7.05624Z" fill="url(#paint0_linear_165_1029)"/>
<defs>
<linearGradient id="paint0_linear_165_1029" x1="13.1154" y1="7.65572" x2="4.18283" y2="-2.91435" gradientUnits="userSpaceOnUse">
<stop stop-color="#FE9900"/>
<stop offset="1" stop-color="#FFBE00"/>
</linearGradient>
</defs>
</svg>
